# xmcd CD database file generated by Grip 2.95
# 
# Track frame offsets:
#       150
#       24165
#       35652
#       55512
#       81657
#       96052
#       117325
#       134327
#       173540
#       184637
#       216287
#       233332
#       242945
# 
# Disc length: 3604 seconds
# 
# Revision: 3
# Processed by: cddbd v1.4b41PL1 Copyright (c) Steve Scherf et al.
# Submitted via: Grip 2.95
# 
DISCID=a40e120d
DTITLE=Reader's Digest - Festival of the World's Best Loved Music: Disc 2
DYEAR=1900
DGENRE=
TTITLE0=Ava Maria (Bach-Gounod)
TTITLE1=A Dream (Grieg)
TTITLE2=Vocalise (Rachmaninoff)
TTITLE3=The White Peacock (Griffes)
TTITLE4=Songs My Mother Taught Me (Dvorak)
TTITLE5=Concerto in G for Two Mandolins, Strings and Cembalo: Andante (Vivaldi)
TTITLE6='Tis the Last Rose of Summer (Flotow)
TTITLE7=Roses from the South (J. Strauss, Jr.)
TTITLE8=Play Gypsies! Dance Gypsies! from Countess Maritz (Kalman)
TTITLE9=Music of the Spheres (Josef Strauss)
TTITLE10=Caprice Viennois - Stars in My Eyes (Kreisler - Kreisler-Fields)
TTITLE11=Fast Track Polka (Eduard Stauss)
TTITLE12=Acceleration Waltz (J. Strauss, Jr.)
EXTD=
EXTT0=
EXTT1=
EXTT2=
EXTT3=
EXTT4=
EXTT5=
EXTT6=
EXTT7=
EXTT8=
EXTT9=
EXTT10=
EXTT11=
EXTT12=
PLAYORDER=
